<svg version="1.1" xmlns="http://www.w3.org/2000/svg" xmlns:xlink="http://www.w3.org/1999/xlink"
	width="1024.00" height="1024.00" viewBox="0 0 1024.0 1024.0">
	<g id="document" transform="scale(3.4133333333333336 3.4133333333333336) translate(150.0 150.0)">
		<path
			d="M143.966,0.187978 C143.966,-79.426 79.426,-143.966 -0.187977,-143.966 C-79.8019,-143.966 -144.342,-79.426 -144.342,0.187977 C-144.342,79.8019 -79.8019,144.342 -0.187978,144.342 C79.426,144.342 143.966,79.8019 143.966,0.187978 Z "
			fill="#51bad2" fill-opacity="1.00" />
		<path
			d="M143.966,16.1827 C137.095,-20.7413 117.263,-42.2695 84.7219,-54.4602 C44.7558,-69.4273 14.5435,-70.077 -17.7291,-128.222 C-2.27477,-81.1918 29.8489,-54.6101 64.5505,-44.9853 C48.7106,-43.7605 31.9647,-28.7046 25.69,-9.81347 C62.6006,-52.0045 126.346,-34.7217 143.966,16.1827 Z "
			fill="#000000" fill-opacity="1.00" />
		<path
			d="M-65.5665,-100.05 C-65.6084,-96.7234 -64.5462,-94.0888 -62.3798,-92.146 C-60.2134,-90.1893 -57.2154,-89.2109 -53.3859,-89.2109 C-50.1013,-89.2109 -47.2187,-89.9447 -44.7378,-91.4123 C-42.257,-92.8798 -41.0165,-95.3187 -41.0165,-98.729 C-41.0165,-101.468 -41.9949,-103.558 -43.9516,-104.998 C-45.0837,-105.822 -46.691,-106.472 -48.7736,-106.947 L-53.0923,-107.933 C-55.9995,-108.603 -57.8654,-109.163 -58.69,-109.61 C-59.9479,-110.309 -60.5768,-111.413 -60.5768,-112.922 C-60.5768,-114.292 -60.0387,-115.494 -58.9625,-116.528 C-57.8863,-117.563 -56.1183,-118.08 -53.6584,-118.08 C-50.6115,-118.08 -48.4521,-117.276 -47.1802,-115.669 C-46.4954,-114.788 -46.0481,-113.523 -45.8385,-111.874 L-41.918,-111.874 C-41.918,-115.298 -43.0466,-117.79 -45.3039,-119.348 C-47.5611,-120.906 -50.304,-121.686 -53.5326,-121.686 C-57.0407,-121.686 -59.7522,-120.798 -61.667,-119.023 C-63.5818,-117.248 -64.5392,-114.977 -64.5392,-112.209 C-64.5392,-109.652 -63.5608,-107.73 -61.6041,-106.444 C-60.472,-105.703 -58.5432,-105.025 -55.8178,-104.411 L-51.6458,-103.467 C-49.3815,-102.95 -47.7183,-102.342 -46.6561,-101.643 C-45.6079,-100.93 -45.0837,-99.7353 -45.0837,-98.0581 C-45.0837,-95.8219 -46.3277,-94.2705 -48.8155,-93.4039 C-50.1013,-92.9567 -51.527,-92.733 -53.0923,-92.733 C-56.5865,-92.733 -59.0254,-93.7533 -60.4091,-95.7939 C-61.1359,-96.8841 -61.5482,-98.3027 -61.646,-100.05 L-65.5665,-100.05 Z M-35.335,-90.1124 L-31.163,-90.1124 L-31.163,-103.132 L-21.4772,-103.132 C-18.3744,-103.132 -16.0753,-104.023 -14.5798,-105.805 C-13.0843,-107.587 -12.3365,-109.68 -12.3365,-112.084 C-12.3365,-114.879 -13.1751,-117.049 -14.8523,-118.593 C-16.5295,-120.138 -18.7378,-120.91 -21.4772,-120.91 L-35.335,-120.91 L-35.335,-90.1124 Z M-16.5505,-112.063 C-16.5505,-110.05 -17.134,-108.645 -18.301,-107.849 C-19.4681,-107.052 -20.988,-106.654 -22.8609,-106.654 L-31.163,-106.654 L-31.163,-117.325 L-22.8609,-117.325 C-21.2536,-117.325 -19.9887,-117.108 -19.0663,-116.675 C-17.3891,-115.864 -16.5505,-114.327 -16.5505,-112.063 Z M-6.69695,-90.1124 L16.071,-90.1124 L16.071,-93.7813 L-2.62975,-93.7813 L-2.62975,-104.222 L14.3728,-104.222 L14.3728,-107.786 L-2.62975,-107.786 L-2.62975,-117.136 L15.7565,-117.136 L15.7565,-120.91 L-6.69695,-120.91 L-6.69695,-90.1124 Z M21.5428,-90.1124 L41.3127,-90.1124 L41.3127,-93.7813 L25.7148,-93.7813 L25.7148,-120.91 L21.5428,-120.91 L21.5428,-90.1124 Z M45.4219,-90.1124 L65.1918,-90.1124 L65.1918,-93.7813 L49.5939,-93.7813 L49.5939,-120.91 L45.4219,-120.91 L45.4219,-90.1124 Z "
			fill="#ffffff" fill-opacity="1.00" />
		<path
			d="M65.1918,121.767 C52.1203,80.0518 26.2097,57.9297 -13.0903,48.3645 C-61.3564,36.6228 -96.3608,40.0711 -141.737,-22.6371 C-117.341,29.5639 -76.5238,55.8177 -35.084,62.1174 C-53.2188,65.7344 -70.4783,85.4607 -75.1039,108.164 C-38.313,54.2769 37.7553,65.3897 65.1918,121.767 Z "
			fill="#000000" fill-opacity="1.00" />
		<path
			d="M129.156,55.1934 C113.158,11.2163 84.3781,-11.1862 41.8879,-19.5121 C-10.2961,-29.7313 -47.5625,-24.3487 -99.1241,-89.2109 C-70.5076,-34.569 -25.5865,-8.46996 19.0339,-3.73984 C-0.184165,1.00631 -17.686,22.9373 -21.5332,47.4399 C15.2012,-11.968 97.0861,-3.7677 129.156,55.1934 Z "
			fill="#000000" fill-opacity="1.00" />
		<path
			d="M-40.833,22.8159 L-40.833,66.4055 L-2.75666,66.4055 C-5.85789,72.4357 -10.682,77.4321 -16.8845,81.5671 C-26.3605,87.2527 -39.4546,91.56 -56.3391,94.6612 L-50.309,104.654 C-31.7015,100.519 -17.5737,95.0058 -8.09768,88.2864 C0.172291,82.2563 6.03018,75.02 9.476,66.4055 L10.5097,66.4055 L10.5097,88.8033 C10.5097,97.5902 15.5062,102.07 25.6714,102.07 L57.5452,102.07 C64.2645,102.07 69.0887,101.036 72.1899,98.9685 C75.6357,96.5564 78.0478,89.6648 79.4261,78.4659 L69.261,75.3646 C68.5718,83.8069 67.0212,88.8033 64.6091,90.5262 C62.8862,91.9046 59.785,92.5937 55.4777,92.5937 L28.7726,92.5937 C23.9484,92.5937 21.5364,90.5262 21.5364,86.3912 L21.5364,66.4055 L36.1811,66.4055 C33.769,73.1248 30.8401,78.2936 27.5666,81.9117 L29.634,87.5973 C37.7317,86.7358 45.8294,85.0129 53.9271,82.4286 L56.3391,87.9419 L62.8862,85.3575 C60.8187,80.5334 57.7175,75.1923 53.9271,69.3344 L47.5523,71.2296 C48.7583,73.2971 49.9644,75.3646 51.3427,77.6044 C46.3463,79.3273 41.0052,80.5334 35.4919,81.2225 C38.5932,77.2598 41.1775,72.2634 43.5896,66.4055 L60.6464,66.4055 L60.6464,22.8159 L5.85789,22.8159 C7.40851,20.0592 8.61455,17.1303 9.64829,14.2013 L-0.861455,12.823 C-1.72291,16.2688 -2.92895,19.5424 -4.47956,22.8159 L-40.833,22.8159 Z M49.4475,58.3078 L11.8881,58.3078 C12.5772,55.2066 13.2664,51.7608 13.7833,48.3149 L49.4475,48.3149 L49.4475,58.3078 Z M0.516873,58.3078 L-29.4618,58.3078 L-29.4618,48.3149 L2.75666,48.3149 C2.06749,51.7608 1.37833,55.0343 0.516873,58.3078 Z M-29.4618,40.5619 L-29.4618,31.2581 L4.13498,31.2581 L3.61811,40.5619 L-29.4618,40.5619 Z M15.3339,31.2581 L49.4475,31.2581 L49.4475,40.5619 L14.817,40.5619 L15.3339,31.2581 Z M-48.4138,-20.7737 L-48.4138,-11.6423 L-27.3943,-11.6423 C-33.769,-4.40609 -42.2113,2.14097 -52.5487,7.65428 L-46.5186,16.4411 C-38.4209,10.9278 -31.1847,4.03617 -24.9822,-4.06151 L-24.9822,17.4749 L-14.6447,17.4749 L-14.6447,-3.02776 C-10.682,0.245767 -6.03018,4.72533 -0.689164,10.2386 L4.82415,2.14097 C-1.72291,-2.51089 -8.09768,-6.64587 -14.6447,-10.4363 L-14.6447,-11.6423 L6.54706,-11.6423 L6.54706,-20.7737 L-14.6447,-20.7737 L-14.6447,-32.8341 L34.2859,-32.8341 L34.2859,-20.7737 L13.4387,-20.7737 L13.4387,-11.6423 L28.6003,-11.6423 C23.7762,-4.2338 16.3676,1.96868 6.71935,6.96511 L12.2327,15.752 C22.0532,8.86031 29.4618,0.418058 34.2859,-9.74711 L34.2859,17.4749 L44.4511,17.4749 L44.4511,-9.74711 C49.6198,-0.271106 58.0621,8.51573 69.4333,16.4411 L76.4972,7.48199 C64.4368,1.79639 55.65,-4.57838 49.9644,-11.6423 L70.6393,-11.6423 L70.6393,-20.7737 L44.4511,-20.7737 L44.4511,-32.8341 L73.9128,-32.8341 L73.9128,-42.827 L9.64829,-42.827 C7.92538,-47.3065 6.37477,-51.2692 4.65186,-54.715 L-8.26997,-52.6476 C-6.54706,-49.7186 -4.82415,-46.4451 -3.10124,-42.827 L-67.5381,-42.827 L-67.5381,29.1906 C-67.8826,57.9632 -71.8453,80.3611 -79.4261,96.5564 L-70.1224,104.999 C-61.5079,86.0467 -56.856,60.7199 -56.3391,29.1906 L-56.3391,-32.8341 L-24.9822,-32.8341 L-24.9822,-20.7737 L-48.4138,-20.7737 Z "
			fill="#ffffff" fill-opacity="1.00" />
	</g>
</svg>