<svg version="1.1" xmlns="http://www.w3.org/2000/svg" xmlns:xlink="http://www.w3.org/1999/xlink"
	width="1024.00" height="1024.00" viewBox="0 0 1024.0 1024.0">
	<g id="document" transform="scale(3.4133333333333336 3.4133333333333336) translate(150.0 150.0)">
		<path
			d="M143.966,0.187978 C143.966,-79.426 79.426,-143.966 -0.187977,-143.966 C-79.8019,-143.966 -144.342,-79.426 -144.342,0.187977 C-144.342,79.8019 -79.8019,144.342 -0.187978,144.342 C79.426,144.342 143.966,79.8019 143.966,0.187978 Z "
			fill="#9b284d" fill-opacity="1.00" />
		<path
			d="M-31.1217,-120.878 L-31.1217,-117.21 L-41.4993,-117.21 L-41.4993,-90.081 L-45.7343,-90.081 L-45.7343,-117.21 L-56.1119,-117.21 L-56.1119,-120.878 L-31.1217,-120.878 Z M-22.6309,-106.769 L-22.6309,-117.293 L-12.4419,-117.293 C-11.0163,-117.293 -9.87724,-117.084 -9.02466,-116.665 C-7.43133,-115.868 -6.63466,-114.372 -6.63466,-112.178 C-6.63466,-110.137 -7.20421,-108.726 -8.3433,-107.943 C-9.4824,-107.16 -11.0303,-106.769 -12.987,-106.769 L-22.6309,-106.769 Z M-26.8029,-90.081 L-22.6309,-90.081 L-22.6309,-103.289 L-13.1338,-103.289 C-11.4286,-103.289 -10.1777,-103.1 -9.38107,-102.723 C-7.9834,-102.038 -7.23565,-100.689 -7.13782,-98.6766 L-6.88624,-93.5402 C-6.83033,-92.3382 -6.76045,-91.5276 -6.67659,-91.1083 C-6.59273,-90.689 -6.48092,-90.3465 -6.34115,-90.081 L-1.22571,-90.081 L-1.22571,-90.7728 C-1.86863,-91.0524 -2.31588,-91.6813 -2.56746,-92.6597 C-2.72121,-93.2327 -2.81904,-94.1062 -2.86097,-95.2803 L-3.00773,-99.4104 C-3.07761,-101.199 -3.41654,-102.492 -4.02453,-103.289 C-4.63251,-104.086 -5.5375,-104.728 -6.73948,-105.218 C-5.36978,-105.93 -4.30406,-106.874 -3.54233,-108.048 C-2.78061,-109.222 -2.39974,-110.731 -2.39974,-112.576 C-2.39974,-116.112 -3.84632,-118.537 -6.73948,-119.851 C-8.26294,-120.536 -10.1987,-120.878 -12.5468,-120.878 L-26.8029,-120.878 L-26.8029,-90.081 Z M9.86474,-102.702 L14.8334,-116.308 L19.5086,-102.702 L9.86474,-102.702 Z M1.05947,-90.081 L5.33632,-90.081 L8.66974,-99.3055 L20.8504,-99.3055 L23.9741,-90.081 L28.5445,-90.081 L17.3702,-120.878 L12.6531,-120.878 L1.05947,-90.081 Z M32.7375,-90.081 L36.9095,-90.081 L36.9095,-103.1 L46.5953,-103.1 C49.6981,-103.1 51.9973,-103.991 53.4928,-105.773 C54.9883,-107.555 55.736,-109.648 55.736,-112.052 C55.736,-114.848 54.8974,-117.017 53.2202,-118.562 C51.543,-120.106 49.3347,-120.878 46.5953,-120.878 L32.7375,-120.878 L32.7375,-90.081 Z M51.5221,-112.031 C51.5221,-110.019 50.9385,-108.614 49.7715,-107.817 C48.6044,-107.021 47.0845,-106.622 45.2116,-106.622 L36.9095,-106.622 L36.9095,-117.293 L45.2116,-117.293 C46.8189,-117.293 48.0838,-117.077 49.0063,-116.644 C50.6835,-115.833 51.5221,-114.295 51.5221,-112.031 Z "
			fill="#ffffff" fill-opacity="1.00" />
		<path
			d="M-14.5482,46.1158 C-30.9193,59.6865 -52.8095,64.795 -73.4396,61.1965 C-99.8218,59.2177 -122.139,39.7417 -131.234,15.742 C-138.065,-2.71907 -140.574,-38.3337 -117.065,-60.9869 C-127.359,-38.5671 -119.628,-19.9757 -116.42,-14.6069 C-101.494,11.4629 -64.749,24.4438 -38.0314,7.15941 C-7.14209,-15.652 11.0339,-54.4038 48.2996,-68.3225 C69.4233,-76.6073 99.8313,-70.6741 111.458,-47.2275 C86.4427,-69.2398 36.9659,-40.8419 37.6381,-9.47807 C37.2314,1.80485 40.4238,15.7544 59.7699,17.6345 C69.765,18.4679 82.5687,8.36591 76.5359,-0.783566 C73.158,-7.09656 65.4742,-4.83667 59.809,-3.8173 C62.9218,-16.8544 84.5474,-18.0163 93.7999,-9.9335 C104.253,-1.67695 106.585,13.9871 98.7546,25.7285 C87.0928,44.8852 68.5488,50.1715 56.2509,65.2512 C48.8555,73.99 48.4015,87.7184 56.4095,95.9276 C60.9449,102.715 72.698,104.109 77.1739,96.4803 C77.3555,90.9889 76.6325,87.5124 69.7742,84.0676 C71.8837,80.0814 77.541,83.3524 79.5954,86.102 C86.4894,93.5369 85.3953,105.333 78.7742,112.958 C68.0249,125.81 42.4566,124.562 28.7912,113.082 C15.1258,101.601 10.2267,82.5004 13.3039,65.4732 C-3.92443,78.6133 -26.2018,84.2789 -47.7365,82.6951 C-31.5471,74.6158 -18.3524,61.8117 -14.5482,46.1158 Z "
			fill="#5d1e87" fill-opacity="1.00" />
		<path
			d="M-70.2947,-50.4939 L-70.2947,-12.9345 L59.6127,-12.9345 L59.6127,-50.4939 L-70.2947,-50.4939 Z M47.7246,-23.2719 L20.158,-23.2719 L20.158,-39.9842 L47.7246,-39.9842 L47.7246,-23.2719 Z M8.61455,-23.2719 L-19.2966,-23.2719 L-19.2966,-39.9842 L8.61455,-39.9842 L8.61455,-23.2719 Z M-30.8401,-23.2719 L-58.4066,-23.2719 L-58.4066,-39.9842 L-30.8401,-39.9842 L-30.8401,-23.2719 Z M-52.2042,61.1506 L3.96269,61.1506 C5.6856,66.3194 7.75309,70.6266 10.1652,74.2447 C15.8508,82.8593 22.3978,89.5786 29.8063,94.0582 C36.8703,98.5378 43.5896,100.778 49.9644,100.778 C57.7175,100.778 64.4368,92.5076 70.2947,76.1399 L59.9573,69.4206 C56.5114,82.1701 52.721,88.8895 48.9306,89.234 C44.7956,89.234 39.9715,87.3388 34.1136,83.5484 C28.6003,79.5858 23.6039,73.9002 19.2966,66.6639 C18.2628,64.941 17.4014,63.2181 16.5399,61.1506 L66.6766,61.1506 L66.6766,49.7794 L12.4049,49.7794 C11.0266,45.4721 9.82058,40.648 8.61455,35.1347 L53.2379,35.1347 L53.2379,-1.90787 L-64.4368,-1.90787 L-64.4368,83.0316 C-64.4368,85.4436 -65.8151,87.3388 -68.3995,88.3726 L-65.2983,99.5715 C-41.5221,95.9534 -21.881,92.163 -6.20247,88.2003 L-8.78684,77.0014 C-23.2593,80.7918 -37.7317,83.893 -52.2042,86.3051 L-52.2042,61.1506 Z M0.172291,49.7794 L-52.2042,49.7794 L-52.2042,35.1347 L-3.61811,35.1347 C-2.41207,40.3034 -1.20604,45.1276 0.172291,49.7794 Z M41.0052,8.94646 L41.0052,24.2804 L-52.2042,24.2804 L-52.2042,8.94646 L41.0052,8.94646 Z "
			fill="#ffffff" fill-opacity="1.00" />
	</g>
</svg>