<svg version="1.1" xmlns="http://www.w3.org/2000/svg" xmlns:xlink="http://www.w3.org/1999/xlink"
	width="1024.00" height="1024.00" viewBox="0 0 1024.0 1024.0">
	<g id="document" transform="scale(3.4133333333333336 3.4133333333333336) translate(150.0 150.0)">
		<path
			d="M146.223,1.94324e-07 C146.223,-79.6139 81.6836,-144.154 2.06969,-144.154 C-77.5442,-144.154 -142.084,-79.6139 -142.084,-1.94324e-07 C-142.084,79.6139 -77.5442,144.154 2.06969,144.154 C81.6836,144.154 146.223,79.6139 146.223,1.94324e-07 Z "
			fill="#714524" fill-opacity="1.00" stroke-width="9.11" stroke="#ffd45f"
			stroke-linecap="square" stroke-linejoin="miter" />
		<path
			d="M-64.551,-91.0134 L-64.551,-114.662 L-57.1504,-114.662 C-53.782,-114.662 -51.3396,-113.607 -49.8232,-111.496 C-48.3067,-109.386 -47.5485,-106.423 -47.5485,-102.607 C-47.5485,-101.615 -47.6533,-100.539 -47.8629,-99.3784 C-48.2263,-97.4357 -48.8203,-95.8424 -49.645,-94.5984 C-50.6792,-93.047 -52.007,-91.9988 -53.6283,-91.4537 C-54.5368,-91.1602 -55.6968,-91.0134 -57.1085,-91.0134 L-64.551,-91.0134 Z M-68.744,-87.4494 L-56.3118,-87.4494 C-51.0286,-87.4494 -47.3039,-89.7835 -45.1375,-94.4517 C-43.9076,-97.0933 -43.2926,-100.049 -43.2926,-103.32 C-43.2926,-107.555 -44.3338,-111.028 -46.4164,-113.739 C-48.7505,-116.744 -52.035,-118.247 -56.2699,-118.247 L-68.744,-118.247 L-68.744,-87.4494 Z M-36.9821,-87.4494 L-32.7682,-87.4494 L-32.7682,-118.247 L-36.9821,-118.247 L-36.9821,-87.4494 Z M-28.1769,-118.247 L-16.9606,-87.4494 L-12.537,-87.4494 L-1.29983,-118.247 L-5.97501,-118.247 L-14.7174,-92.0198 L-23.5646,-118.247 L-28.1769,-118.247 Z M3.585,-87.4494 L7.79895,-87.4494 L7.79895,-118.247 L3.585,-118.247 L3.585,-87.4494 Z M14.5706,-87.4494 L18.554,-87.4494 L18.554,-112.377 L34.3406,-87.4494 L39.0157,-87.4494 L39.0157,-118.247 L35.0534,-118.247 L35.0534,-93.2986 L19.4974,-118.247 L14.5706,-118.247 L14.5706,-87.4494 Z M45.9761,-87.4494 L68.744,-87.4494 L68.744,-91.1183 L50.0433,-91.1183 L50.0433,-101.559 L67.0458,-101.559 L67.0458,-105.123 L50.0433,-105.123 L50.0433,-114.473 L68.4295,-114.473 L68.4295,-118.247 L45.9761,-118.247 L45.9761,-87.4494 Z "
			fill="#ffffff" fill-opacity="1.00" />
		<path
			d="M1.80906,19.9731 L26.1021,19.9731 L26.1021,43.5769 L1.80906,43.5769 L1.80906,19.9731 Z M38.3347,19.9731 L63.3169,19.9731 L63.3169,43.5769 L38.3347,43.5769 L38.3347,19.9731 Z M63.3169,55.465 L63.3169,64.7687 L75.7219,64.7687 L75.7219,-26.8901 L38.3347,-26.8901 L38.3347,-53.5952 L26.1021,-53.5952 L26.1021,-26.8901 L-10.5959,-26.8901 L-10.5959,64.941 L1.80906,64.941 L1.80906,55.465 L26.1021,55.465 L26.1021,104.396 L38.3347,104.396 L38.3347,55.465 L63.3169,55.465 Z M63.3169,8.77417 L38.3347,8.77417 L38.3347,-15.002 L63.3169,-15.002 L63.3169,8.77417 Z M26.1021,8.77417 L1.80906,8.77417 L1.80906,-15.002 L26.1021,-15.002 L26.1021,8.77417 Z M-50.5674,32.8949 L-50.5674,104.74 L-38.3347,104.74 L-38.3347,32.378 C-32.8214,36.8576 -27.3081,42.0263 -21.7948,48.2288 L-15.0755,38.0636 C-22.1394,30.9997 -29.8925,24.7972 -38.3347,19.6285 L-38.3347,18.0779 C-29.5479,6.01751 -23.0008,-6.21514 -18.8659,-18.4478 L-18.8659,-28.9576 L-40.0576,-28.9576 L-35.0612,-30.8528 C-37.301,-38.089 -40.2299,-45.8421 -44.0203,-54.4566 L-55.7361,-51.0108 C-52.118,-43.9469 -49.0168,-36.5384 -46.2601,-28.9576 L-71.9315,-28.9576 L-71.9315,-17.0695 L-31.2708,-17.0695 C-38.6793,1.71024 -53.4963,21.0068 -75.7219,40.648 L-71.9315,53.7421 C-64.0061,46.8505 -56.9422,39.7865 -50.5674,32.8949 Z "
			fill="#ffffff" fill-opacity="1.00" />
	</g>
</svg>